<?xml version="1.0" encoding="UTF-8" standalone="no"?>
<!-- Created with Inkscape (http://www.inkscape.org/) -->
<svg
   xmlns:dc="http://purl.org/dc/elements/1.1/"
   xmlns:cc="http://web.resource.org/cc/"
   xmlns:rdf="http://www.w3.org/1999/02/22-rdf-syntax-ns#"
   xmlns:svg="http://www.w3.org/2000/svg"
   xmlns="http://www.w3.org/2000/svg"
   xmlns:sodipodi="http://sodipodi.sourceforge.net/DTD/sodipodi-0.dtd"
   xmlns:inkscape="http://www.inkscape.org/namespaces/inkscape"
   id="svg1050"
   sodipodi:version="0.32"
   inkscape:version="0.44"
   width="814.96063"
   height="814.96063"
   sodipodi:docbase="/usr/share/icons/gnome/scalable/places"
   sodipodi:docname="start-here.svg"
   version="1.0">
  <metadata
     id="metadata140">
    <rdf:RDF>
      <cc:Work
         rdf:about="">
        <dc:format>image/svg+xml</dc:format>
        <dc:type
           rdf:resource="http://purl.org/dc/dcmitype/StillImage" />
      </cc:Work>
    </rdf:RDF>
  </metadata>
  <defs
     id="defs1052" />
  <sodipodi:namedview
     id="base"
     pagecolor="#ffffff"
     bordercolor="#666666"
     borderopacity="1.0"
     inkscape:pageopacity="0.0"
     inkscape:pageshadow="2"
     inkscape:zoom="0.21707918"
     inkscape:cx="594.58833"
     inkscape:cy="156.1345"
     inkscape:window-width="1014"
     inkscape:window-height="688"
     inkscape:window-x="0"
     inkscape:window-y="26"
     inkscape:current-layer="svg1050"
     width="230.00001mm"
     height="230mm"
     units="mm" />
  <g
     style="fill:black;stroke:black;stroke-width:7.99989986"
     id="g826"
     transform="matrix(3.220991,0,0,3.220991,-226.8133,-1047.089)">
    <path
       d="M 224.755,508.27 C 224.755,508.27 275.641,533.44 282.768,540.025 C 289.896,546.61 287.963,546.513 281.168,544.736 C 274.373,542.959 263.512,535.709 259.653,538.391 C 255.793,541.072 268.439,550.383 273.603,555.432 C 278.767,560.481 276.409,562.28 271.414,561.072 C 266.419,559.864 243.798,546.968 243.798,546.968 C 243.798,546.968 235.502,541.975 237.411,547.607 C 239.32,553.239 244.34,565.947 240.683,566.989 C 237.026,568.031 233.033,562.986 230.849,558.565 C 228.666,554.144 216.56,533.841 212.882,529.078 C 209.203,524.316 203.882,521.175 205.029,513.779 C 206.176,506.383 224.755,508.27 224.755,508.27 z "
       id="path827" />
  </g>
  <g
     style="stroke:black;stroke-width:12"
     id="g828"
     transform="matrix(3.220991,0,0,3.220991,-226.8133,-1047.089)">
    <path
       d="M 204.203,333.409 C 202.529,333.135 188.203,327.409 167.203,354.409 C 146.203,381.409 149.791,385.144 144.35,393.997 C 138.909,402.851 119.071,472.718 134.644,500.13 C 150.218,527.542 188.189,530.851 201.63,530.851 C 215.071,530.851 286.644,519.115 281.63,477.836 C 276.615,436.556 273.1,418.101 254.644,383.968 C 236.189,349.836 213.376,334.913 204.203,333.409 z "
       id="path829" />
  </g>
  <g
     style="fill:black;stroke:black;stroke-width:7.99989986"
     id="g830"
     transform="matrix(3.220991,0,0,3.220991,-226.8133,-1047.089)">
    <path
       d="M 172.27,514.896 C 172.27,514.896 125.236,537.716 119.169,543.997 C 113.102,550.279 115.034,550.279 121.585,548.829 C 128.135,547.379 137.854,540.615 142.202,543.514 C 146.551,546.413 135.383,555.165 131.035,559.997 C 126.686,564.829 129.37,566.762 134.202,565.795 C 139.035,564.829 159.652,552.964 159.652,552.964 C 159.652,552.964 167.169,548.346 166.202,553.93 C 165.236,559.514 162.337,572.077 166.202,573.312 C 170.068,574.548 173.236,569.661 174.686,565.312 C 176.135,560.964 184.887,541.098 187.786,536.48 C 190.686,531.863 195.518,528.964 193.102,521.447 C 190.686,513.93 172.27,514.896 172.27,514.896 z "
       id="path831" />
  </g>
  <g
     style="fill:#fdce27"
     id="g832"
     transform="matrix(3.220991,0,0,3.220991,-226.8133,-1047.089)">
    <path
       d="M 176.011,509.514 C 176.011,509.514 128.977,532.334 122.91,538.615 C 116.843,544.897 118.776,544.897 125.326,543.447 C 131.877,541.998 141.595,535.233 145.944,538.132 C 150.293,541.031 139.125,549.783 134.776,554.615 C 130.427,559.447 133.112,561.38 137.944,560.414 C 142.776,559.447 163.394,547.582 163.394,547.582 C 163.394,547.582 170.91,542.964 169.944,548.548 C 168.978,554.132 166.078,566.695 169.944,567.93 C 173.809,569.166 176.978,564.279 178.427,559.93 C 179.877,555.582 188.629,535.716 191.528,531.099 C 194.427,526.481 199.259,523.582 196.843,516.065 C 194.427,508.548 176.011,509.514 176.011,509.514 z "
       id="path833" />
  </g>
  <g
     style="fill:#fdce27"
     id="g834"
     transform="matrix(3.220991,0,0,3.220991,-226.8133,-1047.089)">
    <path
       d="M 220.723,502.965 C 220.723,502.965 271.609,528.135 278.736,534.72 C 285.864,541.305 283.931,541.208 277.136,539.431 C 270.341,537.654 259.48,530.403 255.621,533.085 C 251.762,535.767 264.407,545.077 269.571,550.127 C 274.736,555.176 272.377,556.975 267.382,555.767 C 262.387,554.559 239.766,541.663 239.766,541.663 C 239.766,541.663 231.47,536.669 233.379,542.302 C 235.288,547.934 240.308,560.642 236.651,561.684 C 232.994,562.726 229.001,557.681 226.817,553.26 C 224.634,548.839 212.528,528.535 208.85,523.773 C 205.171,519.01 199.85,515.87 200.997,508.474 C 202.144,501.078 220.723,502.965 220.723,502.965 z "
       id="path835" />
  </g>
  <g
     style="fill:#feb02a"
     id="g836"
     transform="matrix(3.220991,0,0,3.220991,-226.8133,-1047.089)">
    <path
       d="M 149.121,523.067 C 148.087,524.191 170.627,532.64 179.413,533.202 C 188.2,533.764 188.312,537.157 188.312,537.157 L 193.391,528.483 L 157.009,519.023 C 157.009,519.023 150.155,521.944 149.121,523.067 z "
       id="path837" />
  </g>
  <g
     style="fill:#feb02a"
     id="g838"
     transform="matrix(3.220991,0,0,3.220991,-226.8133,-1047.089)">
    <path
       d="M 216.905,535.16 C 216.905,535.16 219.19,531.372 223.1,531.071 C 227.011,530.77 250.71,525.957 256.003,521.567 L 249.507,517.477 C 249.507,517.477 237.718,514.77 233.808,515.673 C 229.897,516.575 213.116,520.063 212.214,522.77 C 211.312,525.477 211.612,527.762 211.612,527.762 L 216.905,535.16 z "
       id="path839" />
  </g>
  <g
     style="fill:#88d5b0;stroke:black;stroke-width:1.5"
     id="g840"
     transform="matrix(3.220991,0,0,3.220991,-226.8133,-1047.089)">
    <path
       d="M 204.203,330.409 C 202.529,330.135 188.203,324.409 167.203,351.409 C 146.203,378.409 149.791,382.144 144.35,390.997 C 138.909,399.851 119.071,469.718 134.644,497.13 C 150.218,524.542 188.189,527.851 201.63,527.851 C 215.071,527.851 286.644,516.115 281.63,474.836 C 276.615,433.556 273.1,415.101 254.644,380.968 C 236.189,346.836 213.376,331.913 204.203,330.409 z "
       id="path841" />
  </g>
  <g
     style="fill:#fefef6"
     id="g842"
     transform="matrix(3.220991,0,0,3.220991,-226.8133,-1047.089)">
    <path
       d="M 153.531,400.074 C 151.436,385.17 157.953,369.439 168.344,367.979 C 172.73,367.362 177.493,370.06 181.2,373.219 C 187.415,362.489 198.271,358.143 208.693,361.376 C 224.344,366.232 232.575,378.97 229.338,397.326 C 228.914,399.732 228.296,402.042 227.509,404.234 C 231.642,407.908 235.055,412.907 237.104,419.668 C 247.104,452.668 278.104,495.668 235.104,516.168 C 192.104,536.668 142.104,509.168 137.604,498.668 C 133.104,488.168 134.104,454.168 139.104,435.168 C 144.104,416.168 153.531,400.074 153.531,400.074 z "
       id="path843" />
  </g>
  <g
     style="fill:#eff1e4"
     id="g844"
     transform="matrix(3.220991,0,0,3.220991,-226.8133,-1047.089)">
    <path
       d="M 235.462,516.534 C 192.566,536.985 142.704,509.667 137.996,499.111 C 151.925,509.029 169.137,514.891 187.766,514.891 C 216.709,514.891 242.234,500.742 257.339,479.209 C 258.969,494.159 254.368,507.521 235.462,516.534 z "
       id="path845" />
  </g>
  <g
     style="fill:#c1efd7"
     id="g846"
     transform="matrix(3.220991,0,0,3.220991,-226.8133,-1047.089)">
    <path
       d="M 204.581,334.913 C 206.968,333.713 211.106,335.403 213.824,338.688 C 216.542,341.973 216.811,345.609 214.424,346.809 C 212.038,348.01 207.9,346.319 205.182,343.034 C 202.464,339.749 202.195,336.113 204.581,334.913 z "
       id="path847" />
  </g>
  <g
     style="fill:#c1efd7"
     id="g848"
     transform="matrix(3.220991,0,0,3.220991,-268.2728,-913.497)">
    <path
       id="path849"
       d="" />
  </g>
  <g
     style="fill:#eff1e4"
     id="g850"
     transform="matrix(3.220991,0,0,3.220991,-226.8133,-1047.089)">
    <path
       d="M 238.366,424.464 C 239.695,422.636 255.529,470.636 255.529,470.636 C 255.529,470.636 247.031,471.965 239.529,439.633 C 239.529,439.633 237.036,426.292 238.366,424.464 z "
       id="path851" />
  </g>
  <g
     style="fill:black"
     id="g852"
     transform="matrix(3.220991,0,0,3.220991,-226.8133,-1047.089)">
    <path
       d="M 204.137,386.459 C 204.137,384.153 205.295,382.283 206.724,382.283 C 208.153,382.283 209.311,384.153 209.311,386.459 C 209.311,388.766 208.153,390.636 206.724,390.636 C 205.295,390.636 204.137,388.766 204.137,386.459 z "
       id="path853" />
  </g>
  <g
     style="fill:black"
     id="g854"
     transform="matrix(3.220991,0,0,3.220991,-268.2728,-913.497)">
    <path
       id="path855"
       d="" />
  </g>
  <g
     style="fill:white"
     id="g858"
     transform="matrix(3.220991,0,0,3.220991,-226.8133,-1047.089)">
    <path
       d="M 207.191,386.098 C 207.191,385.356 207.792,384.755 208.534,384.755 C 209.275,384.755 209.876,385.356 209.876,386.098 C 209.876,386.839 209.275,387.441 208.534,387.441 C 207.792,387.441 207.191,386.839 207.191,386.098 z "
       id="path859" />
  </g>
  <g
     style="fill:white"
     id="g860"
     transform="matrix(3.220991,0,0,3.220991,-268.2728,-913.497)">
    <path
       id="path861"
       d="" />
  </g>
  <g
     style="fill:#eff1e4"
     id="g862"
     transform="matrix(3.220991,0,0,3.220991,-226.8133,-1047.089)">
    <path
       d="M 180.188,431.99 C 177.33,435.003 174.323,437.628 171.634,438.874 C 163.09,442.835 164.856,433.923 165.337,430.705 C 165.818,427.487 168.264,422.477 168.264,422.477 C 169.908,415.793 175.486,402.307 177.932,398.841 C 180.377,395.375 183.388,391.662 188.883,393.148 C 193.826,394.484 196.79,405.683 197.335,407.919 C 198.522,409.485 199.381,411.459 199.781,413.762 C 201.129,421.519 196.757,430.066 190.015,432.852 C 186.437,434.331 182.911,433.89 180.188,431.99 z "
       id="path863" />
  </g>
  <g
     style="fill:#fae62a;stroke:black;stroke-width:4"
     id="g864"
     transform="matrix(3.220991,0,0,3.220991,-226.8133,-1047.089)">
    <path
       d="M 174.257,414.365 C 171.678,416.128 168.964,417.663 166.538,418.393 C 158.827,420.71 160.421,415.496 160.855,413.614 C 161.29,411.731 163.497,408.8 163.497,408.8 C 164.98,404.889 170.014,397 172.221,394.972 C 174.428,392.944 177.145,390.772 182.103,391.641 C 186.564,392.423 189.239,398.975 189.731,400.283 C 190.802,401.199 191.577,402.354 191.938,403.701 C 193.154,408.239 189.209,413.239 183.125,414.869 C 179.896,415.735 176.714,415.476 174.257,414.365 z "
       id="path865" />
  </g>
  <g
     style="fill:#fdce27"
     id="g866"
     transform="matrix(3.220991,0,0,3.220991,-226.8133,-1047.089)">
    <path
       d="M 173.911,413.01 C 171.332,414.772 168.618,416.308 166.192,417.037 C 158.481,419.354 160.074,414.141 160.509,412.258 C 160.943,410.375 163.151,407.444 163.151,407.444 C 164.633,403.534 169.668,395.644 171.875,393.616 C 174.082,391.589 176.799,389.417 181.757,390.285 C 186.218,391.067 188.892,397.619 189.385,398.928 C 190.456,399.843 191.231,400.998 191.592,402.346 C 192.808,406.884 188.863,411.884 182.779,413.514 C 179.55,414.379 176.368,414.121 173.911,413.01 z "
       id="path867" />
  </g>
  <g
     style="fill:black"
     id="g868"
     transform="matrix(3.220991,0,0,3.220991,-226.8133,-1047.089)">
    <path
       d="M 179.852,394.531 C 180.445,393.715 181.32,393.34 181.805,393.692 C 182.291,394.045 182.204,394.993 181.611,395.809 C 181.018,396.625 180.143,397 179.658,396.648 C 179.172,396.295 179.259,395.347 179.852,394.531 z "
       id="path869" />
  </g>
  <g
     style="fill:black"
     id="g870"
     transform="matrix(3.220991,0,0,3.220991,-268.2728,-913.497)">
    <path
       id="path871"
       d="" />
  </g>
  <g
     style="fill:#feb02a"
     id="g872"
     transform="matrix(3.220991,0,0,3.220991,-226.8133,-1047.089)">
    <path
       d="M 173.924,413.482 C 171.344,415.244 168.631,416.78 166.205,417.509 C 162.264,418.693 160.755,417.908 160.278,416.609 C 160.278,416.609 163.054,420.571 175.773,408.861 C 182.844,402.351 184.915,396.676 185.361,392.789 C 187.667,395.067 189.057,398.493 189.398,399.4 C 190.469,400.315 191.244,401.47 191.605,402.818 C 192.821,407.356 188.875,412.356 182.792,413.986 C 179.563,414.851 176.381,414.593 173.924,413.482 z "
       id="path873" />
  </g>
  <g
     style="stroke:black;stroke-width:2"
     id="g874"
     transform="matrix(3.220991,0,0,3.220991,-226.8133,-1047.089)">
    <path
       d="M 170.724,416.212 C 170.724,416.212 184.756,408.049 186.398,401.679"
       id="path875" />
  </g>
  <g
     style="stroke:black"
     id="g876"
     transform="matrix(3.220991,0,0,3.220991,-226.8133,-1047.089)">
    <path
       d="M 184.163,399.445 C 184.163,399.445 187.349,399.836 188.284,403.42"
       id="path877" />
  </g>
  <g
     style="fill:#f9ec70"
     id="g878"
     transform="matrix(3.220991,0,0,3.220991,-226.8133,-1047.089)">
    <path
       d="M 171.268,395.807 C 173.379,392.678 175.77,390.6 176.609,391.167 C 177.448,391.733 176.418,394.728 174.308,397.857 C 172.197,400.985 169.806,403.063 168.967,402.497 C 168.128,401.931 169.158,398.935 171.268,395.807 z "
       id="path879" />
  </g>
  <g
     style="fill:#f9ec70"
     id="g880"
     transform="matrix(3.220991,0,0,3.220991,-268.2728,-913.497)">
    <path
       id="path881"
       d="" />
  </g>
  <g
     style="fill:#f9ec70"
     id="g882"
     transform="matrix(3.220991,0,0,3.220991,-226.8133,-1047.089)">
    <path
       d="M 135.017,556.526 C 134.185,555.292 138.873,550.675 145.488,546.213 C 152.103,541.751 158.141,539.134 158.973,540.368 C 159.805,541.601 155.117,546.218 148.501,550.68 C 141.886,555.142 135.849,557.76 135.017,556.526 z "
       id="path883" />
  </g>
  <g
     style="fill:#f9ec70"
     id="g884"
     transform="matrix(3.220991,0,0,3.220991,-268.2728,-913.497)">
    <path
       id="path885"
       d="" />
  </g>
  <g
     style="fill:#f9ec70"
     id="g886"
     transform="matrix(3.220991,0,0,3.220991,-226.8133,-1047.089)">
    <path
       d="M 123.795,538.638 C 123.453,537.517 126.6,535.562 130.825,534.27 C 135.051,532.978 138.754,532.84 139.096,533.96 C 139.439,535.081 136.291,537.036 132.066,538.328 C 127.841,539.62 124.138,539.759 123.795,538.638 z "
       id="path887" />
  </g>
  <g
     style="fill:#f9ec70"
     id="g888"
     transform="matrix(3.220991,0,0,3.220991,-268.2728,-913.497)">
    <path
       id="path889"
       d="" />
  </g>
  <g
     style="fill:#f9ec70"
     id="g890"
     transform="matrix(3.220991,0,0,3.220991,-226.8133,-1047.089)">
    <path
       d="M 174.533,546.505 C 175.679,546.748 175.863,550.449 174.944,554.771 C 174.026,559.093 172.352,562.399 171.206,562.155 C 170.06,561.912 169.875,558.211 170.794,553.889 C 171.713,549.567 173.386,546.261 174.533,546.505 z "
       id="path891" />
  </g>
  <g
     style="fill:#f9ec70"
     id="g892"
     transform="matrix(3.220991,0,0,3.220991,-268.2728,-913.497)">
    <path
       id="path893"
       d="" />
  </g>
  <g
     style="fill:#f9ec70"
     id="g894"
     transform="matrix(3.220991,0,0,3.220991,-226.8133,-1047.089)">
    <path
       d="M 272.936,555.629 C 271.671,556.986 265.144,552.955 258.357,546.626 C 251.571,540.298 247.094,534.068 248.359,532.711 C 249.624,531.355 256.151,535.385 262.938,541.714 C 269.725,548.043 274.201,554.273 272.936,555.629 z "
       id="path895" />
  </g>
  <g
     style="fill:#f9ec70"
     id="g896"
     transform="matrix(3.220991,0,0,3.220991,-268.2728,-913.497)">
    <path
       id="path897"
       d="" />
  </g>
  <g
     style="fill:#f9ec70"
     id="g898"
     transform="matrix(3.220991,0,0,3.220991,-226.8133,-1047.089)">
    <path
       d="M 229.136,550.027 C 226.607,545.064 225.577,540.521 226.834,539.88 C 228.092,539.239 231.162,542.743 233.691,547.706 C 236.22,552.67 237.25,557.212 235.993,557.853 C 234.735,558.494 231.665,554.99 229.136,550.027 z "
       id="path899" />
  </g>
  <g
     style="fill:#f9ec70"
     id="g900"
     transform="matrix(3.220991,0,0,3.220991,-268.2728,-913.497)">
    <path
       id="path901"
       d="" />
  </g>
  <g
     style="fill:#f9ec70"
     id="g902"
     transform="matrix(3.220991,0,0,3.220991,-226.8133,-1047.089)">
    <path
       d="M 270.423,531.522 C 270.918,530.787 274.587,532.396 278.618,535.114 C 282.648,537.832 285.513,540.632 285.018,541.366 C 284.522,542.101 280.853,540.493 276.823,537.774 C 272.793,535.056 269.927,532.257 270.423,531.522 z "
       id="path903" />
  </g>
  <g
     style="fill:#f9ec70"
     id="g904"
     transform="matrix(3.220991,0,0,3.220991,-268.2728,-913.497)">
    <path
       id="path905"
       d="" />
  </g>
  <g
     style="fill:#2c996c"
     id="g906"
     transform="matrix(3.220991,0,0,3.220991,-226.8133,-1047.089)">
    <path
       d="M 259.655,474.68 C 259.524,475.729 258.436,476.369 256.997,476.206 C 256.171,473.707 243.113,434.27 240.312,430.411 C 241.722,423.469 246.293,407.745 257.641,417.108 C 271.968,428.929 278.514,451.553 281.524,464.621 C 284.533,477.689 280.768,492.028 272.975,489.007 C 265.183,485.986 259.655,474.68 259.655,474.68 z "
       id="path907" />
  </g>
  <g
     style="fill:#2c996c;stroke:black;stroke-width:4"
     id="g908"
     transform="matrix(3.220991,0,0,3.220991,-226.8133,-1047.089)">
    <path
       d="M 243.054,426.338 C 243.054,426.338 244.247,449.603 254.705,462.676 C 257.452,466.109 260.885,465.651 261.114,463.82 C 261.114,463.82 266.139,474.099 273.223,476.845 C 280.308,479.592 283.73,466.557 280.994,454.676 C 278.258,442.796 272.308,422.229 259.283,411.482 C 246.258,400.736 243.054,426.338 243.054,426.338 z "
       id="path909" />
  </g>
  <g
     style="fill:#88d5b0"
     id="g910"
     transform="matrix(3.220991,0,0,3.220991,-226.8133,-1047.089)">
    <path
       d="M 241.725,421.612 C 241.725,421.612 242.918,444.877 253.376,457.95 C 256.123,461.383 259.556,460.925 259.785,459.094 C 259.785,459.094 264.809,469.372 271.894,472.119 C 278.978,474.865 282.401,461.83 279.665,449.95 C 276.929,438.069 270.978,417.502 257.954,406.756 C 244.929,396.01 241.725,421.612 241.725,421.612 z "
       id="path911" />
  </g>
  <g
     style="fill:#c1efd7"
     id="g912"
     transform="matrix(3.220991,0,0,3.220991,-226.8133,-1047.089)">
    <path
       d="M 252.807,409.83 C 255.194,408.63 259.332,410.32 262.05,413.605 C 264.768,416.891 265.037,420.527 262.651,421.727 C 260.264,422.927 256.126,421.237 253.408,417.952 C 250.69,414.666 250.421,411.03 252.807,409.83 z "
       id="path913" />
  </g>
  <g
     style="fill:#c1efd7"
     id="g914"
     transform="matrix(3.220991,0,0,3.220991,-268.2728,-913.497)">
    <path
       id="path915"
       d="" />
  </g>
  <g
     style="fill:#2c996c;stroke:black;stroke-width:3.21519995"
     id="g916"
     transform="matrix(3.220991,0,0,3.220991,-226.8133,-1047.089)">
    <path
       d="M 140.115,428.525 C 140.115,428.525 139.33,451.39 132.449,464.238 C 130.642,467.612 128.384,467.162 128.233,465.363 C 128.233,465.363 124.927,475.464 120.266,478.163 C 115.605,480.863 113.354,468.052 115.154,456.376 C 116.954,444.7 120.869,424.487 129.438,413.925 C 138.007,403.364 140.115,428.525 140.115,428.525 z "
       id="path917" />
  </g>
  <g
     style="fill:#88d5b0"
     id="g918"
     transform="matrix(3.220991,0,0,3.220991,-226.8133,-1047.089)">
    <path
       d="M 142.305,425.465 C 142.305,425.465 141.52,446.043 134.639,457.606 C 132.833,460.643 130.574,460.238 130.423,458.618 C 130.423,458.618 127.118,467.709 122.457,470.139 C 117.796,472.568 115.544,461.038 117.344,450.53 C 119.144,440.022 123.059,421.83 131.628,412.325 C 140.197,402.819 142.305,425.465 142.305,425.465 z "
       id="path919" />
  </g>
  <g
     style="fill:#2c996c"
     id="g920"
     transform="matrix(3.220991,0,0,3.220991,-226.8133,-1047.089)">
    <path
       d="M 134.029,458.893 C 133.829,459.263 133.625,459.625 133.414,459.979 C 131.607,463.015 129.349,462.61 129.198,460.991 C 129.198,460.991 125.892,470.082 121.231,472.511 C 116.57,474.94 114.319,463.411 116.119,452.903 C 117.628,444.093 120.623,429.883 126.601,419.918 C 123.564,430.416 117.911,453.408 124.016,461.362 C 125.486,463.278 128.59,460.213 128.934,455.131 C 129.21,451.069 129.984,460.239 134.029,458.893 z "
       id="path921" />
  </g>
  <g
     style="fill:#88d5b0"
     id="g922"
     transform="matrix(3.220991,0,0,3.220991,-226.8133,-1047.089)">
    <path
       d="M 126.526,419.85 C 126.526,419.85 129.216,414.728 133.532,410.36 C 138.417,405.416 140.878,405.816 142.767,400.493 C 144.629,395.245 144.182,406.004 144.182,413.093 C 144.182,420.182 142.112,427.519 141.532,429.258 C 140.952,430.998 139.247,430.301 137.259,427.436 C 135.271,424.571 133.912,423.163 132.372,422.998 C 130.833,422.832 126.526,419.85 126.526,419.85 z "
       id="path923" />
  </g>
  <g
     style="fill:#c1efd7"
     id="g924"
     transform="matrix(3.220991,0,0,3.220991,-226.8133,-1047.089)">
    <path
       d="M 134.692,434.071 C 135.15,428.841 136.527,424.69 137.769,424.799 C 139.012,424.907 139.648,429.235 139.19,434.464 C 138.733,439.694 137.355,443.845 136.113,443.736 C 134.871,443.627 134.235,439.3 134.692,434.071 z "
       id="path925" />
  </g>
  <g
     style="fill:black"
     id="g926"
     transform="matrix(3.220991,0,0,3.220991,-226.8133,-1047.089)">
    <path
       d="M 164.473,386.33 C 164.473,384.023 165.631,382.153 167.06,382.153 C 168.489,382.153 169.647,384.023 169.647,386.33 C 169.647,388.636 168.489,390.506 167.06,390.506 C 165.631,390.506 164.473,388.636 164.473,386.33 z "
       id="path927" />
  </g>
  <g
     style="fill:black"
     id="g928"
     transform="matrix(3.220991,0,0,3.220991,-268.2728,-913.497)">
    <path
       id="path929"
       d="" />
  </g>
  <g
     style="fill:white"
     id="g930"
     transform="matrix(3.220991,0,0,3.220991,-226.8133,-1047.089)">
    <path
       d="M 167.527,385.968 C 167.527,385.227 168.128,384.625 168.87,384.625 C 169.611,384.625 170.212,385.227 170.212,385.968 C 170.212,386.71 169.611,387.311 168.87,387.311 C 168.128,387.311 167.527,386.71 167.527,385.968 z "
       id="path931" />
  </g>
  <g
     style="fill:white"
     id="g932"
     transform="matrix(3.220991,0,0,3.220991,-268.2728,-913.497)">
    <path
       id="path933"
       d="" />
  </g>
  <g
     style="fill:#c1efd7"
     id="g958"
     transform="matrix(3.220991,0,0,3.220991,-268.2728,-913.497)">
    <path
       id="path959"
       d="" />
  </g>
  <g
     style="fill:black"
     id="g964"
     transform="matrix(3.220991,0,0,3.220991,-268.2728,-913.497)">
    <path
       id="path965"
       d="" />
  </g>
  <g
     style="fill:white"
     id="g974"
     transform="matrix(3.220991,0,0,3.220991,-268.2728,-913.497)">
    <path
       id="path975"
       d="" />
  </g>
  <g
     style="fill:black"
     id="g984"
     transform="matrix(3.220991,0,0,3.220991,-268.2728,-913.497)">
    <path
       id="path985"
       d="" />
  </g>
  <g
     style="fill:#f9ec70"
     id="g994"
     transform="matrix(3.220991,0,0,3.220991,-268.2728,-913.497)">
    <path
       id="path995"
       d="" />
  </g>
  <g
     style="fill:#f9ec70"
     id="g998"
     transform="matrix(3.220991,0,0,3.220991,-268.2728,-913.497)">
    <path
       id="path999"
       d="" />
  </g>
  <g
     style="fill:#f9ec70"
     id="g1002"
     transform="matrix(3.220991,0,0,3.220991,-268.2728,-913.497)">
    <path
       id="path1003"
       d="" />
  </g>
  <g
     style="fill:#f9ec70"
     id="g1006"
     transform="matrix(3.220991,0,0,3.220991,-268.2728,-913.497)">
    <path
       id="path1007"
       d="" />
  </g>
  <g
     style="fill:#f9ec70"
     id="g1010"
     transform="matrix(3.220991,0,0,3.220991,-268.2728,-913.497)">
    <path
       id="path1011"
       d="" />
  </g>
  <g
     style="fill:#f9ec70"
     id="g1014"
     transform="matrix(3.220991,0,0,3.220991,-268.2728,-913.497)">
    <path
       id="path1015"
       d="" />
  </g>
  <g
     style="fill:#f9ec70"
     id="g1018"
     transform="matrix(3.220991,0,0,3.220991,-268.2728,-913.497)">
    <path
       id="path1019"
       d="" />
  </g>
  <g
     style="fill:#c1efd7"
     id="g1026"
     transform="matrix(3.220991,0,0,3.220991,-268.2728,-913.497)">
    <path
       id="path1027"
       d="" />
  </g>
  <g
     style="fill:#c1efd7"
     id="g1040"
     transform="matrix(3.220991,0,0,3.220991,-268.2728,-913.497)">
    <path
       id="path1041"
       d="" />
  </g>
  <path
     style="fill:none;fill-opacity:0.75;fill-rule:evenodd;stroke:black;stroke-width:3.2209919pt"
     d="M 412.13137,155.35044 C 435.08251,142.23552 453.93532,141.41581 471.96825,157.8095"
     id="path1049"
     sodipodi:nodetypes="cc" />
</svg>
